<?xml version="1.0" encoding="utf-8"?>
<!-- Generator: Adobe Illustrator 26.0.0, SVG Export Plug-In . SVG Version: 6.00 Build 0)  -->
<svg version="1.1" id="Layer_1" xmlns="http://www.w3.org/2000/svg" xmlns:xlink="http://www.w3.org/1999/xlink" x="0px" y="0px"
	 viewBox="0 0 1080 1080" style="enable-background:new 0 0 1080 1080;" xml:space="preserve">
<style type="text/css">
	.st0{fill:url(#SVGID_1_);}
	.st1{fill:url(#SVGID_00000075857001918681121400000003247606985839450548_);}
</style>
<g>
	<linearGradient id="SVGID_1_" gradientUnits="userSpaceOnUse" x1="527.8109" y1="45.919" x2="548.2364" y2="1007.9615">
		<stop  offset="0" style="stop-color:#D6CA01"/>
		<stop  offset="0.055" style="stop-color:#D7CB06"/>
		<stop  offset="0.1208" style="stop-color:#D9CE15"/>
		<stop  offset="0.1923" style="stop-color:#DDD32D"/>
		<stop  offset="0.2677" style="stop-color:#E3DA4F"/>
		<stop  offset="0.3462" style="stop-color:#EAE37A"/>
		<stop  offset="0.4261" style="stop-color:#F2EEAE"/>
		<stop  offset="0.5056" style="stop-color:#FCFBEA"/>
		<stop  offset="0.5617" style="stop-color:#EAE7B4"/>
		<stop  offset="0.6185" style="stop-color:#DAD584"/>
		<stop  offset="0.6773" style="stop-color:#CCC65C"/>
		<stop  offset="0.737" style="stop-color:#C1BA3A"/>
		<stop  offset="0.798" style="stop-color:#B8B021"/>
		<stop  offset="0.8608" style="stop-color:#B2A90E"/>
		<stop  offset="0.9265" style="stop-color:#AEA504"/>
		<stop  offset="1" style="stop-color:#ADA400"/>
	</linearGradient>
	<path class="st0" d="M496.33,296.86c0-24.03,0.22-46.69-0.35-69.33c-0.06-2.25-4.79-6.05-7.58-6.27c-9.97-0.77-20.04-0.3-30.94-0.3
		c0-11.94,0-23.19,0-35.76c49.3,0,98.22,0,147.92,0c0,11.59,0,23.25,0,36.3c-11.93,0-23.28,0-35.26,0c0,25.42,0,49.45,0,75.26
		c7.23-1.6,13.99-2.74,20.55-4.61c33.92-9.64,64.77-25.92,94.86-43.91c43.05-25.73,88.1-46.54,138.14-54.67
		c4.4-0.72,8.83-1.4,13.27-1.76c13.63-1.09,25.04-3.68,35.54-15.52c15.43-17.39,43.5-14.07,58.28,3.53
		c15.33,18.25,12.77,44.88-6.52,59.29c-5.84,4.36-6.89,8.25-5.24,14.84c32.41,129.41,64.67,258.86,96.86,388.33
		c1.93,7.77,7.5,14.47,3,23.96c-8.38,17.65-19.52,32.66-35.93,43.13c-25.32,16.17-53.52,21.94-83.15,19.44
		c-18.06-1.52-36.43-3.21-53.81-7.95c-23.68-6.46-42.47-21.09-55.01-42.8c-6.17-10.67-9.29-20.46-4.91-34.06
		c9.2-28.58,14.98-58.26,22.26-87.47c25.42-102.05,50.87-204.09,76.3-306.14c0.26-1.05,0.29-2.17,0.3-2.22
		c-7.18-6.81-13.53-13.45-20.6-19.22c-2.42-1.98-6.72-2.73-10.01-2.42c-47.04,4.41-90.41,19.95-131.57,42.81
		c-39.28,21.82-77.71,45.63-121.83,57.24c-3.23,0.85-6.39,2.03-9.64,2.8c-21.82,5.19-21.83,5.17-21.83,27.98
		c0,175.03,0,350.06,0,525.09c0,4.82,0,9.64,0,16.07c28.19,0,55.85,0,84.78,0c0,13.23,0,24.92,0,37.85c23.77,0,46.27,0,69.49,0
		c0,12.93,0,24.61,0,36.89c-120.9,0-241.36,0-363.02,0c0-10.56-0.5-20.56,0.39-30.43c0.19-2.14,5.34-5.37,8.3-5.47
		c15.62-0.55,31.28-0.26,46.92-0.27c4,0,8,0,13.13,0c0-12.58,0-23.95,0-36.97c18.86,0,36.61-0.46,54.32,0.19
		c9.46,0.34,12.86-2.05,12.84-12.3c-0.31-180.99-0.27-361.98-0.1-542.97c0.01-7.93-1.59-11.63-10.52-13.1
		c-39.84-6.53-75.59-23.94-110.54-43.31c-34.78-19.28-69.02-39.86-107.74-50.66c-14.65-4.09-29.62-7.24-44.63-9.68
		c-4.1-0.66-8.89,2.8-13.32,4.48c-0.61,0.23-0.86,1.35-1.47,1.63c-17.64,7.96-12.7,21.17-9.18,35.13
		c30.58,121.44,60.99,242.93,90.72,364.58c2.52,10.3,11.42,19.42,5.3,32.23c-8.44,17.68-19.59,32.64-35.96,43.09
		c-25.3,16.16-53.52,21.9-83.15,19.35c-18.06-1.56-36.36-3.41-53.82-7.93c-20.61-5.34-37.6-17.81-50.09-35.42
		c-9.33-13.16-13.94-25.8-9.27-43.89c33.2-128.44,64.65-257.34,96.95-386.01c1.81-7.21,1.06-11-5.49-15.41
		c-14.69-9.87-19.99-24.62-16.88-41.9c2.97-16.47,16.24-29.46,32.99-32.18c17.32-2.81,31.17,3.26,41.9,17.44
		c2.72,3.6,7.76,7.1,12.08,7.6c56.72,6.55,107.11,29.64,155.49,58.31c34.34,20.35,69.54,38.76,109.21,46.65
		C490.86,296.39,492.69,296.46,496.33,296.86z M895.1,263.33c-0.57-0.16-1.15-0.32-1.72-0.48
		c-32.22,129.37-64.44,258.75-96.91,389.12c33.96,0,65.83,0,98.63,0C895.1,522.03,895.1,392.68,895.1,263.33z M172.34,262.97
		c-0.85-0.11-1.69-0.22-2.54-0.33c-32.24,129.47-64.49,258.94-97.1,389.92c29.8,0,57.68-0.52,85.52,0.26
		c11.06,0.31,14.45-2.39,14.41-14.04c-0.46-121.75-0.29-243.51-0.29-365.26C172.34,270,172.34,266.48,172.34,262.97z M185.86,262.69
		c-0.59,0.11-1.19,0.22-1.78,0.33c-0.24,0.97-0.7,1.94-0.7,2.91c-0.04,125.78,0.01,251.56-0.19,377.34
		c-0.01,8.18,4.01,8.88,10.4,8.83c26.8-0.18,53.6-0.05,80.4-0.13c2.44-0.01,4.87-0.66,8.51-1.19
		C250.14,520.88,218,391.78,185.86,262.69z M909.83,264.12c-0.65,0.24-1.3,0.48-1.95,0.72c0,128.58,0,257.17,0,386.45
		c32.78,0,64.9,0,98.39,0C973.95,521.54,941.89,392.83,909.83,264.12z"/>
	
		<linearGradient id="SVGID_00000132052305082076057940000013771400144458902425_" gradientUnits="userSpaceOnUse" x1="530.8101" y1="45.8553" x2="551.2356" y2="1007.8979">
		<stop  offset="0" style="stop-color:#D6CA01"/>
		<stop  offset="0.055" style="stop-color:#D7CB06"/>
		<stop  offset="0.1208" style="stop-color:#D9CE15"/>
		<stop  offset="0.1923" style="stop-color:#DDD32D"/>
		<stop  offset="0.2677" style="stop-color:#E3DA4F"/>
		<stop  offset="0.3462" style="stop-color:#EAE37A"/>
		<stop  offset="0.4261" style="stop-color:#F2EEAE"/>
		<stop  offset="0.5056" style="stop-color:#FCFBEA"/>
		<stop  offset="0.5617" style="stop-color:#EAE7B4"/>
		<stop  offset="0.6185" style="stop-color:#DAD584"/>
		<stop  offset="0.6773" style="stop-color:#CCC65C"/>
		<stop  offset="0.737" style="stop-color:#C1BA3A"/>
		<stop  offset="0.798" style="stop-color:#B8B021"/>
		<stop  offset="0.8608" style="stop-color:#B2A90E"/>
		<stop  offset="0.9265" style="stop-color:#AEA504"/>
		<stop  offset="1" style="stop-color:#ADA400"/>
	</linearGradient>
	<path style="fill:url(#SVGID_00000132052305082076057940000013771400144458902425_);" d="M491.37,125.97
		c0.37-22.91,18.82-41.09,41.36-40.77c22.48,0.32,41.1,19.21,40.95,41.57c-0.15,23.2-19.03,41.5-42.29,41.01
		C508.48,167.29,491,149.03,491.37,125.97z"/>
</g>
</svg>
