<?xml version="1.0" encoding="utf-8"?>
<!-- Generator: Adobe Illustrator 26.0.0, SVG Export Plug-In . SVG Version: 6.00 Build 0)  -->
<svg version="1.1" id="Layer_1" xmlns="http://www.w3.org/2000/svg" xmlns:xlink="http://www.w3.org/1999/xlink" x="0px" y="0px"
	 viewBox="0 0 317.1 309" style="enable-background:new 0 0 317.1 309;" xml:space="preserve">
<style type="text/css">
	.st0{fill:#1C194E;}
	.st1{fill:#FFFFFF;}
</style>
<g>
	<path class="st0" d="M6.8,305.5c0-100.1,0-200.3,0-300.4C7.4,5.1,8,5,8.6,5C97.4,5,186.2,5,275,5c0.6,0,1.3,0,2.1,0
		c0,1,0,1.7,0,2.5c0,27.9,0,55.8,0,83.8c0,0.5-0.1,1,0,1.5c0.2,0.4,0.6,0.7,0.9,1.1c0.2-0.1,0.4-0.2,0.6-0.3c0-29.5,0-58.9,0-88.4
		c4.7,0,9.1,0,13.7,0c0,0.9,0,1.7,0,2.4c0,19.9,0,39.9,0,59.8c0,0.7-0.6,1.8,0.7,1.9c0.2,0,0.7-1.3,0.7-2c0-20,0-40,0-60
		c0-0.7,0-1.5,0-2.3c5.5,0,10.8,0,16,0c0,100.1,0,200.3,0,300.4c-0.8,0-1.5,0-2.3,0c-89.6,0-179.3,0-268.9,0c-0.7,0-1.5,0-2.4,0
		c0-22.4,0-44.5,0-66.6c-1.7-0.4-1.3,0.7-1.3,1.5c0,21,0,42.1,0,63.1c0,0.6,0,1.3,0,1.9c-3.7,0-7.1,0-10.7,0c0-0.9,0-1.7,0-2.4
		c0-27.6,0-55.3,0-82.9c0-0.5,0.1-1,0-1.5c-0.2-0.4-0.6-0.7-0.9-1c-0.2,0.1-0.4,0.2-0.5,0.3c0,29.2,0,58.4,0,87.7
		C17.2,305.5,12,305.5,6.8,305.5z M241.6,142.6c-0.9,0.1-1.7,0.4-2.5,0.4c-2,0.1-2.8,1.1-3.5,2.9c-6.9,17.8-14,35.5-21,53.2
		c-1.6,4.2-1.6,4.1-6.1,3.1c-3.9-0.9-6.1-3.3-6.6-7.2c-0.3-2.9-0.7-5.8-0.7-8.7c-0.1-22.9,0-45.8,0-68.7c0-1.3,0-2.5,0.1-3.8
		c0.3-4.4,2.1-6.6,6.4-7.7c2.1-0.6,4.3-0.9,6.5-1.2c3.3-0.5,3.3-0.5,3.2-3.9c0-1.1-0.4-1.4-1.4-1.4c-8.7-0.1-17.4-0.2-26.1-0.3
		c-1.5,0-2.2,0.4-2.9,1.8c-7.4,15.5-14.9,31-22.4,46.5c-4.4,9.1-8.7,18.1-13.1,27.2c-1.3,2.8-2.7,5.6-4.2,8.5
		c-0.2-0.4-0.3-0.6-0.4-0.8c-11.5-27.4-23.1-54.8-34.6-82.2c-0.6-1.4-1.3-1.9-2.9-1.9c-7.7,0-15.3-0.2-23-0.3c-1.4,0-2.7,0-4.3,0
		c0,1.3,0.2,2.4,0,3.5c-0.3,1.4,0.3,1.5,1.4,1.7c3.1,0.5,6.2,1,9.2,2c3.6,1.1,5.1,3.5,5,7.2c-0.1,3.7-0.4,7.5-0.7,11.2
		c0,0.5-0.2,1-0.5,1.4c-2.9,3.8-6.4,6.4-11.5,6.3c-5.3-0.1-10.7,0-16,0c-1.2,0-2.4-0.1-3.6-0.3c-3.4-0.5-4.9-2-5.5-5.4
		c-0.2-1.3-0.3-2.6-0.3-3.9c0-22.4,0-44.7,0-67.1c0-1.5,0.1-3,0.3-4.4c0.6-4.1,2.4-5.9,6.4-6.6c1.9-0.4,3.9-0.6,5.9-0.8
		c0.9-0.1,1.3-0.4,1.2-1.3c0-0.5-0.1-1,0-1.5c0.2-1.5-0.4-1.9-1.9-1.9c-12.5,0.1-25,0-37.5,0c-0.6,0-1.2,0.1-1.7,0.1
		c0,1.6,0,3,0,4.3c2.8,0.5,5.6,0.9,8.2,1.5c2.5,0.6,4.2,2.2,4.7,4.8c0.4,2,0.7,4.1,0.7,6.2c0.1,15.9,0,31.8,0,47.7
		c0,7,0,14.1-0.2,21.1c-0.1,5.4-2.2,7.6-7.5,8.6c-1,0.2-2,0.3-2.9,0.5c-1.5,0.2-3,0.4-4.6,0.6c0,0.8,0,1.4,0,2
		c0,2.8-0.3,2.5,2.4,2.5c20.1,0,40.2,0,60.4,0c0.7,0,1.4,0,2.2,0c0,0.7,0,1.2,0,1.7c-0.8,9.8-1.6,19.7-2.5,29.5
		c-0.6,7.2-1.3,14.3-2.1,21.5c-0.8,6.5-3.6,9.4-9.8,10.7c-1.3,0.3-2.7,0.3-4.1,0.6c-0.4,0.1-1,0.5-1.1,0.9c-0.1,1.3-0.1,2.6-0.1,4.1
		c13.2,0.2,26.4,0.3,39.7,0.5c0-1.7,0-3.3,0-4.7c-3-0.6-6-1-8.8-1.8c-4.1-1.1-6.1-3.7-6.4-8c-0.2-2.4-0.1-4.7,0-7.1
		c0.2-5.4,0.4-10.9,0.7-16.3c0.4-7.7,0.8-15.5,1.3-23.2c0.4-5.2,0.1-10.4,1.9-15.4c0.9-2.5,1.5-5.2,2.3-7.8c0.1,0,0.3,0,0.4,0
		c11.1,28.2,22.2,56.4,33.3,84.6c0.1,0,0.2,0,0.4,0c2.8,0.5,4.2-0.5,5.4-3.3c5.2-11.9,10.7-23.6,16.1-35.4
		c8.1-17.4,16.2-34.7,24.4-52.1c0.1-0.2,0.3-0.4,0.6-0.8c-0.1,0.9-0.1,1.6-0.1,2.3c-0.1,7.3-0.2,14.6-0.3,22
		c-0.1,9.6-0.2,19.3-0.3,28.9c-0.1,7.2-0.2,14.3-0.4,21.5c-0.1,2-0.4,3.9-0.7,5.9c-0.5,3.1-2.4,4.9-5.4,5.5c-2.1,0.4-4.3,0.6-6.5,1
		c-0.5,0.1-1.4,0.5-1.5,0.9c-0.2,1.3-0.1,2.7-0.1,4.1c13.1,0.2,25.9,0.3,38.8,0.5c-0.1,0.3-0.1,0.5-0.1,0.6
		c-2.7,6.9-5.4,13.8-8.3,20.6c-0.9,2.1-2.2,4.2-3.7,6c-2.5,3.1-6.2,3.8-9.9,4.2c-1.3,0.1-1.8,0.6-1.6,1.8c0,0.3,0.1,0.7,0,1
		c-0.2,1.6,0.3,2.1,2,2.1c10.6-0.1,21.2,0,31.8,0c0.6,0,1.2,0,1.8,0c0-1.6,0-3,0-4.6c-0.7-0.1-1.3-0.2-2-0.3c-2.5-0.5-5-0.9-7.4-1.6
		c-2.7-0.9-3.6-2.6-3.2-5.4c0.2-1.2,0.4-2.5,0.9-3.7c2.3-6.5,4.6-12.9,6.9-19.4c0.3-0.9,0.8-1.3,1.8-1.3c10.1,0,20.2,0,30.3,0
		c1.1,0,1.5,0.4,1.8,1.4c1.5,4.5,3.2,8.9,4.7,13.4c1.2,3.4,2.5,6.8,3.6,10.3c0.9,2.8,0,4.4-2.8,5.3c-0.5,0.2-1.1,0.3-1.6,0.4
		c-1.7,0.3-3.4,0.7-5.1,1c0,1.5,0,2.9,0,4.4c12.7,0,25.3,0,37.9,0c0-1.5,0-2.9,0-4.5c-0.8-0.1-1.5-0.2-2.2-0.3
		c-5.9-0.4-10.1-3-12.2-8.7c-1.8-5-3.8-9.9-5.7-14.9c-7.5-20.5-15-40.9-22.5-61.4C244.6,150.6,243.1,146.6,241.6,142.6z"/>
	<path class="st1" d="M309.8,5.1c-5.2,0-10.5,0-16,0c0,0.8,0,1.5,0,2.3c0,20,0,40,0,60c0,0.7-0.5,2-0.7,2c-1.4-0.1-0.7-1.2-0.7-1.9
		c0-19.9,0-39.9,0-59.8c0-0.8,0-1.5,0-2.4c-4.6,0-9,0-13.7,0c0,29.4,0,58.9,0,88.4c-0.2,0.1-0.4,0.2-0.6,0.3
		c-0.3-0.4-0.8-0.7-0.9-1.1c-0.2-0.4,0-1,0-1.5c0-27.9,0-55.8,0-83.8c0-0.8,0-1.5,0-2.5c-0.8,0-1.5,0-2.1,0C186.2,5,97.4,5,8.6,5
		C8,5,7.4,5.1,6.8,5.1C6.8,5,6.9,4.8,6.9,4.8c0.4,0,0.9,0,1.3,0c100,0,200,0,300,0C308.8,4.8,309.3,5,309.8,5.1z"/>
	<path class="st1" d="M6.8,305.5c5.2,0,10.5,0,15.9,0c0-29.3,0-58.5,0-87.7c0.2-0.1,0.4-0.2,0.5-0.3c0.3,0.3,0.8,0.6,0.9,1
		c0.2,0.4,0,1,0,1.5c0,27.6,0,55.3,0,82.9c0,0.8,0,1.5,0,2.4c3.5,0,7,0,10.7,0c0-0.6,0-1.2,0-1.9c0-21,0-42.1,0-63.1
		c0-0.8-0.4-1.9,1.3-1.5c0,22.1,0,44.2,0,66.6c0.9,0,1.6,0,2.4,0c89.6,0,179.3,0,268.9,0c0.8,0,1.5,0,2.3,0
		c-0.1,0.1-0.1,0.3-0.2,0.3c-0.4,0-0.9,0-1.3,0c-100,0-200,0-300,0C7.8,305.8,7.3,305.6,6.8,305.5z"/>
	<path class="st1" d="M241.6,142.6c1.5,4,3,8,4.4,12.1c7.5,20.5,15,41,22.5,61.4c1.8,5,3.8,9.9,5.7,14.9c2.1,5.7,6.4,8.3,12.2,8.7
		c0.7,0.1,1.4,0.2,2.2,0.3c0,1.5,0,2.9,0,4.5c-12.6,0-25.2,0-37.9,0c0-1.5,0-2.9,0-4.4c1.7-0.3,3.4-0.6,5.1-1
		c0.5-0.1,1.1-0.2,1.6-0.4c2.8-1,3.7-2.5,2.8-5.3c-1.1-3.5-2.4-6.9-3.6-10.3c-1.6-4.5-3.2-8.9-4.7-13.4c-0.3-1-0.7-1.4-1.8-1.4
		c-10.1,0-20.2,0-30.3,0c-1,0-1.5,0.3-1.8,1.3c-2.3,6.5-4.6,12.9-6.9,19.4c-0.4,1.2-0.7,2.4-0.9,3.7c-0.4,2.8,0.4,4.5,3.2,5.4
		c2.4,0.8,4.9,1.1,7.4,1.6c0.6,0.1,1.3,0.2,2,0.3c0,1.5,0,3,0,4.6c-0.7,0-1.3,0-1.8,0c-10.6,0-21.2,0-31.8,0c-1.6,0-2.2-0.5-2-2.1
		c0.1-0.3,0-0.7,0-1c-0.2-1.2,0.3-1.7,1.6-1.8c3.7-0.4,7.4-1.1,9.9-4.2c1.5-1.8,2.8-3.9,3.7-6c2.9-6.8,5.6-13.7,8.3-20.6
		c0.1-0.1,0.1-0.3,0.1-0.6c-12.9-0.2-25.7-0.3-38.8-0.5c0-1.5-0.1-2.8,0.1-4.1c0-0.4,0.9-0.8,1.5-0.9c2.2-0.4,4.4-0.6,6.5-1
		c3-0.6,4.9-2.4,5.4-5.5c0.3-1.9,0.7-3.9,0.7-5.9c0.2-7.1,0.3-14.3,0.4-21.5c0.1-9.6,0.2-19.3,0.3-28.9c0.1-7.3,0.2-14.6,0.3-22
		c0-0.7,0.1-1.4,0.1-2.3c-0.3,0.4-0.5,0.6-0.6,0.8c-8.1,17.4-16.3,34.7-24.4,52.1c-5.5,11.8-10.9,23.5-16.1,35.4
		c-1.2,2.8-2.6,3.8-5.4,3.3c-0.2,0-0.3,0-0.4,0c-11.1-28.2-22.2-56.4-33.3-84.6c-0.1,0-0.3,0-0.4,0c-0.8,2.6-1.4,5.2-2.3,7.8
		c-1.9,5-1.6,10.3-1.9,15.4c-0.5,7.7-0.9,15.5-1.3,23.2c-0.3,5.4-0.5,10.9-0.7,16.3c-0.1,2.4-0.1,4.7,0,7.1c0.3,4.3,2.3,6.8,6.4,8
		c2.8,0.8,5.8,1.2,8.8,1.8c0,1.4,0,3,0,4.7c-13.3-0.2-26.5-0.3-39.7-0.5c0-1.5-0.1-2.8,0.1-4.1c0-0.3,0.7-0.8,1.1-0.9
		c1.3-0.3,2.7-0.3,4.1-0.6c6.2-1.3,9-4.2,9.8-10.7c0.9-7.1,1.5-14.3,2.1-21.5c0.9-9.8,1.7-19.7,2.5-29.5c0-0.5,0-1,0-1.7
		c-0.8,0-1.5,0-2.2,0c-20.1,0-40.2,0-60.4,0c-2.7,0-2.4,0.3-2.4-2.5c0-0.6,0-1.2,0-2c1.6-0.2,3.1-0.4,4.6-0.6c1-0.1,2-0.3,2.9-0.5
		c5.3-0.9,7.4-3.2,7.5-8.6c0.1-7,0.1-14.1,0.2-21.1c0-15.9,0-31.8,0-47.7c0-2.1-0.3-4.2-0.7-6.2c-0.5-2.6-2.2-4.2-4.7-4.8
		c-2.7-0.6-5.4-1-8.2-1.5c0-1.3,0-2.7,0-4.3c0.5,0,1.1-0.1,1.7-0.1c12.5,0,25,0,37.5,0c1.5,0,2.1,0.4,1.9,1.9c-0.1,0.5-0.1,1,0,1.5
		c0.1,0.9-0.3,1.2-1.2,1.3c-2,0.2-3.9,0.4-5.9,0.8c-4.1,0.8-5.8,2.5-6.4,6.6c-0.2,1.5-0.3,3-0.3,4.4c0,22.4,0,44.7,0,67.1
		c0,1.3,0.1,2.6,0.3,3.9c0.6,3.4,2.1,4.9,5.5,5.4c1.2,0.2,2.4,0.3,3.6,0.3c5.3,0,10.7,0,16,0c5.1,0.1,8.6-2.6,11.5-6.3
		c0.3-0.4,0.5-0.9,0.5-1.4c0.3-3.7,0.6-7.5,0.7-11.2c0.1-3.8-1.4-6.1-5-7.2c-3-0.9-6.1-1.4-9.2-2c-1.1-0.2-1.7-0.3-1.4-1.7
		c0.2-1,0-2.2,0-3.5c1.5,0,2.9,0,4.3,0c7.7,0.1,15.3,0.3,23,0.3c1.6,0,2.3,0.5,2.9,1.9c11.5,27.4,23,54.8,34.6,82.2
		c0.1,0.2,0.2,0.4,0.4,0.8c1.4-2.9,2.8-5.7,4.2-8.5c4.4-9.1,8.7-18.1,13.1-27.2c7.5-15.5,15-31,22.4-46.5c0.6-1.4,1.4-1.8,2.9-1.8
		c8.7,0.2,17.4,0.3,26.1,0.3c1.1,0,1.4,0.3,1.4,1.4c0.1,3.4,0.1,3.4-3.2,3.9c-2.2,0.3-4.4,0.6-6.5,1.2c-4.3,1.2-6,3.4-6.4,7.7
		c-0.1,1.3-0.1,2.5-0.1,3.8c0,22.9,0,45.8,0,68.7c0,2.9,0.3,5.8,0.7,8.7c0.5,3.9,2.7,6.3,6.6,7.2c4.4,1,4.4,1.1,6.1-3.1
		c7-17.7,14-35.4,21-53.2c0.7-1.8,1.6-2.8,3.5-2.9C239.9,142.9,240.7,142.7,241.6,142.6z M220.9,201.7c9.5,0,18.7,0,28.2,0
		c-4.6-12.8-9-25.4-13.5-38c-0.1,0-0.3,0-0.4,0C230.4,176.3,225.7,188.9,220.9,201.7z"/>
	<path class="st0" d="M220.9,201.7c4.8-12.8,9.5-25.4,14.3-38c0.1,0,0.3,0,0.4,0c4.5,12.6,9,25.2,13.5,38
		C239.6,201.7,230.4,201.7,220.9,201.7z"/>
</g>
</svg>
